<svg xmlns="http://www.w3.org/2000/svg" viewBox="0 0 57.05 56.97"><defs><style>.cls-1{fill:#878787;}</style></defs><title>Asset 3</title><g id="Layer_2" data-name="Layer 2"><g id="Layer_1-2" data-name="Layer 1"><path class="cls-1" d="M27.73,39.74c1.27,0,2.53,0,3.8,0,4.42,0,8.84,0,13.26,0a3.7,3.7,0,0,0,3.67-2.3c2.76-5.73,5.42-11.51,8-17.3A6.78,6.78,0,0,0,57,16.76a3.64,3.64,0,0,0-3.25-3.37,32.11,32.11,0,0,0-3.41-.14H25.43c-1.9,0-3.8,0-5.7.1-.34,0-.41-.18-.48-.42-.3-1-.59-2.08-.91-3.11a46.07,46.07,0,0,0-1.91-5.89A6.14,6.14,0,0,0,10.86.09C7.91,0,5,0,2,0A2.13,2.13,0,0,0,.1,1.57,2.15,2.15,0,0,0,.77,3.84a2.68,2.68,0,0,0,1.85.49c2.53.06,5.07.13,7.6.13A2.25,2.25,0,0,1,12.52,6c.36.88.61,1.8.88,2.71q4.65,15.69,9.31,31.38a12.36,12.36,0,0,0,1.64,4.12c2,2.62,4.39,4.34,7.86,4.23,2.68-.09,5.37,0,8.05,0,3.11,0,6.23.08,9.34,0A1.82,1.82,0,0,0,51.4,47a2.06,2.06,0,0,0-1.94-2.79c-1.53-.07-3.06-.06-4.59-.07-4.23,0-8.46,0-12.7,0a5.47,5.47,0,0,1-4.87-3.86C27.16,39.83,27.3,39.73,27.73,39.74Zm11.67-4.89c0,.3-.11.38-.39.38q-2.6,0-5.19,0c-.3,0-.38-.1-.37-.38,0-1.06,0-2.12,0-3.18,0-.3.1-.37.38-.37.87,0,1.75,0,2.63,0s1.71,0,2.57,0c.29,0,.39.08.38.38Q39.37,33.25,39.39,34.84Zm5.21.2c-.08.17-.22.17-.37.17-.52,0-1,0-1.56,0-.31,0-.38-.11-.37-.39,0-1.06,0-2.12,0-3.18,0-.2,0-.37.28-.36h3.75ZM42.76,17.8H47.4c1.55,0,3.1,0,4.64,0,.47,0,.5.14.32.51q-.72,1.54-1.41,3.1a.47.47,0,0,1-.5.33H42.68c-.29,0-.39-.08-.38-.38,0-1,0-2.09,0-3.13C42.28,17.85,42.45,17.8,42.76,17.8Zm-.46,7.27c0-.23,0-.45.32-.44,2.21,0,4.43,0,6.64.09l.11.06L47.8,28.15c-.1.21-.27.16-.43.16-1.53,0-3.05,0-4.58.06-.38,0-.52-.1-.51-.49C42.32,26.94,42.3,26,42.3,25.08ZM39,28.36c-.88,0-1.75,0-2.63,0s-1.68,0-2.51,0c-.32,0-.41-.09-.4-.41q0-1.45,0-2.9c0-.31.08-.42.4-.42q2.57,0,5.14,0c.32,0,.42.1.42.41,0,1,0,1.94,0,2.9C39.4,28.27,39.29,28.36,39,28.36ZM33.43,18.19c0-.29.08-.39.38-.38q2.59,0,5.19,0c.28,0,.4.08.39.38,0,1.06,0,2.12,0,3.18,0,.3-.11.38-.39.37-.87,0-1.75,0-2.62,0s-1.71,0-2.57,0c-.28,0-.39-.06-.38-.37C33.45,20.31,33.45,19.25,33.43,18.19ZM22.36,21.37c-.29-1-.59-2-.93-3-.12-.37,0-.47.33-.47h4.36v-.05c1.36,0,2.72,0,4.08,0,.35,0,.45.1.44.44,0,1,0,2,0,3.07,0,.36-.12.42-.45.42q-3.66,0-7.32,0C22.59,21.73,22.44,21.67,22.36,21.37Zm2.59,7a.41.41,0,0,1-.48-.34c-.3-1-.62-2-.95-3-.11-.34,0-.42.33-.41,1.06,0,2.12,0,3.18,0s2.12,0,3.18,0c.3,0,.43.07.42.4q0,1.48,0,3c0,.31-.11.37-.39.37Zm1.63,6.3c-.3-1-.64-2-1-3-.1-.28,0-.35.25-.35.75,0,1.49,0,2.24,0s1.45,0,2.18,0c.29,0,.38.08.38.38,0,1.06,0,2.12,0,3.18,0,.24,0,.38-.33.37-1,0-2,0-3,0A.65.65,0,0,1,26.58,34.65Z"/><path class="cls-1" d="M30.9,49A3.91,3.91,0,0,0,27,53,4.06,4.06,0,0,0,30.8,57c1.91.07,4.28-1.72,4-3.91A3.85,3.85,0,0,0,30.9,49Z"/><path class="cls-1" d="M44.2,49a4.07,4.07,0,0,0-4,3.85,4,4,0,1,0,7.9.17A4,4,0,0,0,44.2,49Z"/></g></g></svg>