<svg xmlns="http://www.w3.org/2000/svg" viewBox="0 0 56.22 55.13"><defs><style>.cls-1{fill:none;stroke:#878787;stroke-miterlimit:10;}.cls-2{fill:#878787;}</style></defs><title>Asset 6</title><g id="Layer_2" data-name="Layer 2"><g id="Layer_1-2" data-name="Layer 1"><path class="cls-1" d="M55,14.9c-.82-.18-1.65-.33-2.47-.49L41,12.19c-.41-.08-.82-.1-1.08.31s-.07.75.17,1.1c1.11,1.63,2.2,3.26,3.31,4.88.23.33.26.47-.14.71q-5.7,3.41-11.36,6.88c-.38.23-.56.17-.84-.13Q27,21.55,22.87,17.18a1.38,1.38,0,0,0-.91-.53c-.32-.09-.5.14-.68.33-1,1-2,1.95-3,2.95L5.55,32.6,5,33.11C3.56,34.5,2.16,35.94.74,37.36c-.17.17-.35.38-.17.65.24.76.72.94,1.39.52.35-.22.69-.47,1-.7,1.45-.93,2.84-2,4.33-2.83a1.47,1.47,0,0,0,.57-.25c.52-.35,1-.71,1.57-1,1.58-1,3.12-2.07,4.7-3.09a19,19,0,0,0,2-1.48c1-.69,2.06-1.37,3.08-2.09.29-.2.42-.15.65.09q4.83,5.26,9.69,10.5c.51.55.8.58,1.43.14L35,35a.91.91,0,0,0,.55-.27l1.45-1c.45-.32.89-.65,1.35-1,1.46-1,2.85-2.12,4.37-3A23.81,23.81,0,0,1,45,28.09c.27-.18.51-.39.78-.57a27.87,27.87,0,0,1,2.43-1.66c.12,0,.17.16.25.25a.94.94,0,0,0,.4.41c.86,1.24,1.72,2.48,2.56,3.73.24.36.53.62,1,.51s.55-.41.62-.8c.11-.66.26-1.31.39-2q1.16-6,2.32-12A.81.81,0,0,0,55,14.9Z"/><path class="cls-2" d="M23.33,14.49c.12.24.37.24.58.33a21,21,0,0,0,2.57.94c.28.07.34.24.33.5,0,.92,0,1.84,0,2.75a.75.75,0,0,0,.2.57q2.19,2.35,4.35,4.73a.43.43,0,0,0,.66.1c.92-.59,1.85-1.14,2.78-1.7a1.14,1.14,0,0,0,.41-.39A6.44,6.44,0,0,0,32,12.75c-.68-.25-1.37-.48-2.07-.66-.35-.09-.46-.23-.45-.58,0-.92,0-1.84,0-2.75,0-.58,0-1.16,0-1.81l.29.14A3,3,0,0,1,31,8.94a2.25,2.25,0,0,0,3,1.59,2.35,2.35,0,0,0,1.22-3.21,6.23,6.23,0,0,0-5.26-4.2c-.44-.06-.6-.19-.56-.63a6.87,6.87,0,0,0,0-1.15,1.34,1.34,0,1,0-2.68,0,9.29,9.29,0,0,0,0,1.2c0,.38-.11.47-.47.53A7,7,0,0,0,22.05,5.3C20.18,7.42,19.82,12.28,23.33,14.49Zm6.16,6.9c0-.71,0-1.41,0-2.12s0-1.45,0-2.18c0-.27,0-.38.36-.26A2.43,2.43,0,0,1,31.73,19,2.75,2.75,0,0,1,30,21.71C29.57,21.89,29.48,21.79,29.49,21.38ZM26.47,7c.32-.16.35,0,.35.23,0,.59,0,1.18,0,1.77h0c0,.55,0,1.1,0,1.66,0,.33,0,.46-.4.27a2,2,0,0,1-1.27-2A2.09,2.09,0,0,1,26.47,7Z"/><path class="cls-2" d="M53.6,32.39H49.07c-.94,0-1.24.3-1.24,1.23q0,5.08,0,10.16t0,10.16c0,.86.32,1.17,1.18,1.17h4.36c1.15,0,1.37-.22,1.37-1.37q0-6.34,0-12.68c0-2.53,0-5.05,0-7.58C54.73,32.7,54.39,32.39,53.6,32.39Z"/><path class="cls-2" d="M15.8,35.39H11.21c-.94,0-1.18.24-1.18,1.18q0,4.33,0,8.67T10,54c0,.81.33,1.15,1.09,1.15h4.71c.79,0,1.11-.31,1.11-1.11q0-8.75,0-17.51C16.93,35.71,16.6,35.4,15.8,35.39Z"/><path class="cls-2" d="M25.17,36.06H20.81c-1,0-1.34.3-1.34,1.32q0,3.21,0,6.43,0,5.05,0,10.1c0,.93.29,1.21,1.2,1.21H25.1c1,0,1.31-.27,1.31-1.28q0-4.1,0-8.21h0q0-4.16,0-8.32C26.41,36.4,26.07,36.06,25.17,36.06Z"/><path class="cls-2" d="M44.12,36.07,39.3,36c-.66,0-1,.33-.94.94,0,.23,0,.46,0,.69q0,8.15,0,16.3c0,.83.31,1.15,1.13,1.15h4.59c.87,0,1.17-.29,1.17-1.17q0-8.35,0-16.7C45.28,36.38,45,36.07,44.12,36.07Z"/><path class="cls-2" d="M35.37,40c-.17-.25-.43-.2-.67-.2a41.58,41.58,0,0,0-5,.12,1,1,0,0,0-.71,1.1c0,4.34,0,8.68,0,13,0,.77.31,1.08,1.08,1.08h4.7c.78,0,1.11-.33,1.11-1.12,0-4.28,0-8.56,0-12.84A1.29,1.29,0,0,0,35.37,40Z"/><path class="cls-2" d="M6.4,42.26l-3.16,0c-.17-.16-.38-.12-.58-.15A4.72,4.72,0,0,0,1,42.23a.6.6,0,0,0-.26.4.87.87,0,0,0-.13.55q0,5.48,0,11a.9.9,0,0,0,1,1H6.32c.87,0,1.17-.3,1.17-1.17q0-5.31,0-10.62C7.49,42.57,7.16,42.26,6.4,42.26Z"/></g></g></svg>