<svg xmlns="http://www.w3.org/2000/svg" viewBox="0 0 66.25 66.05"><defs><style>.cls-1{fill:#878787;}</style></defs><title>Asset 1</title><g id="Layer_2" data-name="Layer 2"><g id="Layer_1-2" data-name="Layer 1"><path class="cls-1" d="M64,45.44H61.92c-4.1,0-4,0-4-4.11,0-1.24.42-1.54,1.54-1.48,1.47.08,2.95,0,4.42,0s2.44-.64,2.37-2.14a2,2,0,0,0-2.36-1.94c-.77,0-1.54,0-2.31,0-3.65,0-3.64,0-3.63-3.74a2.53,2.53,0,0,0,0-.38c-.17-1.15.24-1.62,1.46-1.53s2.69,0,4,0c1.53.06,2.83-.33,2.79-2.08s-1.24-2-2.71-2-2.95,0-4.42,0c-.49,0-1.15.13-1.14-.64,0-1.59-.55-3.4.25-4.69.54-.87,2.27-.2,3.46-.29a22.09,22.09,0,0,1,2.31,0,1.94,1.94,0,0,0,2.3-2c0-1.41-.88-2-2.23-2.07-1.6,0-3.21-.05-4.8,0-1,0-1.29-.26-1.33-1.29-.25-6.64-.29-6.68-7-7-.91,0-1.22-.26-1.18-1.19.07-1.6.07-3.21,0-4.8C49.63.89,49,0,47.56,0s-2,.88-2,2.24c0,1.6-.08,3.21,0,4.8s-1.19,1.25-1.79,1c-1.25-.43-3.1,1.35-3.77-1a3.65,3.65,0,0,1,0-1c0-1.35,0-2.69,0-4S39.26-.07,37.8,0s-1.9.88-1.9,2.15c0,1.6,0,3.2,0,4.81,0,.45.26,1.14-.56,1.17-1.47,0-2.95,0-4.42,0-.81,0-.61-.67-.62-1.14,0-1.67,0-3.33,0-5a1.81,1.81,0,0,0-2-2,1.82,1.82,0,0,0-2,2.06c0,.64,0,1.28,0,1.92,0,4.36,0,4.32-4.34,4.2-1,0-1.37-.23-1.31-1.28.09-1.4,0-2.82,0-4.23S20.42,0,18.64,0s-2.11,1.26-2.09,2.74,0,2.82,0,4.23c0,.93-.29,1.16-1.2,1.21-6.81.36-6.84.38-7.11,7.12,0,1.08-.43,1.27-1.36,1.24-1.66-.06-3.33,0-5,0A1.78,1.78,0,0,0,0,18.5a1.79,1.79,0,0,0,1.85,2c.7,0,1.41,0,2.11,0,4.5,0,4.47,0,4.28,4.46,0,.91-.27,1.22-1.2,1.19-1.73-.06-3.46,0-5.19,0A1.77,1.77,0,0,0,0,28a1.82,1.82,0,0,0,1.67,2.17,18.44,18.44,0,0,0,2.3.07c4.52,0,4.48,0,4.27,4.46,0,1-.39,1.16-1.25,1.13-1.66-.05-3.33,0-5,0a1.83,1.83,0,0,0-2,1.86,1.93,1.93,0,0,0,1.9,2.2A19.13,19.13,0,0,0,4,39.9c4.5,0,4.47,0,4.24,4.46,0,.82-.23,1.12-1.08,1.09-1.73-.06-3.46,0-5.19,0a1.86,1.86,0,0,0-2,1.9,1.91,1.91,0,0,0,1.74,2.16,15.23,15.23,0,0,0,2.11.06c1.4,0,3.15-.42,4.09.26s.21,2.51.29,3.84a4.09,4.09,0,0,0,4.15,4.1,26.64,26.64,0,0,0,2.88,0c1-.08,1.35.3,1.31,1.3-.07,1.6,0,3.2,0,4.8A1.92,1.92,0,0,0,18.68,66a1.88,1.88,0,0,0,1.93-2.15c0-.64,0-1.28,0-1.92,0-4.38,0-4.34,4.33-4.22,1,0,1.37.27,1.32,1.3-.08,1.53,0,3.08,0,4.61s.62,2.4,2.1,2.37,2-1,2-2.34c0-1.6,0-3.2,0-4.81,0-.81.25-1.3,1.09-1.1,1.5.35,3.25-.86,4.51.71.16.19,0,.62,0,.94,0,1.41,0,2.82,0,4.23S36.45,66,37.81,66,40,65.15,40,63.7a28.62,28.62,0,0,1,.05-4.8c.44-2.49,2.48-.63,3.72-1.07.62-.22,2-.58,1.79,1a9.59,9.59,0,0,0,0,1c0,1.35,0,2.69,0,4A1.92,1.92,0,0,0,47.49,66a2,2,0,0,0,2.18-1.94,17.24,17.24,0,0,0,0-2.11c0-4.08,0-4.08,4.1-4.21a4,4,0,0,0,4.1-4.11,22,22,0,0,0,0-2.69c-.09-1.06.24-1.49,1.37-1.42,1.6.09,3.2.07,4.8,0a2.06,2.06,0,1,0,0-4.11ZM16.82,22.71c.38-1,.84-1.3,1.74-.42.48.47,1.19,1.45,1.87.57.44-.57-.39-1.25-1-1.61-2.68-1.59.3-2.33.5-3.49.68,1.62,1.64,3,2.34,4.48a2.13,2.13,0,0,1,0,2.51,2.26,2.26,0,0,1-2.49.49,8.74,8.74,0,0,0-2-.51C15.91,24.67,16.44,23.69,16.82,22.71ZM32.44,52c-.08,1.09-.89,1.4-1.86,1.56-3,.5-8.72-2.54-10-5.34-.93-2.06-.11-3.32,2.14-3.31A2.32,2.32,0,0,0,24,44.78c1.53-1.19,2.93-2.6,5-2.71.1,0,.29-.36.26-.4s-.38-.44-.56-.42c-1.51.11-3.18,0-4.1,1.52A2,2,0,0,1,22.5,44c-2-.27-3.05.58-3.21,2.86a13.49,13.49,0,0,1-3.62-6.58c-.3-1.41.33-2.11,1.84-1.53,1.18.45,2,.2,2.3-1.13.12-.51.18-1.45.83-1.24.95.31,1.28,1.34,1.45,2.32.13.74-.06,1.35-.91,1.35-1.35,0-2,.92-2.83,1.77,1.39.22,4.09-.91,4.55-1.94A3.3,3.3,0,0,0,22,36.15c-.92-1.06-2.35-1-2.86.19S18.07,38,16.76,37.52c-.52-.17-1.21.18-1.83.3-.87-3.37-.79-3.14,2.27-4.27,2.86-1.05,5.67.11,8.48-.36.67-.11,1.19.45,1.62.91,1.49,1.6,3.09,2.25,5.17.34-.08,1.36.23,2.34-.1,3.43a5.08,5.08,0,0,0-4.3,0c-1.27.54-1.88-.23-2.41-1.2-.23-.42-.5-1.12-1.08-.74s-.1.9.16,1.35c.85,1.47,1.87,2.36,3.75,1.65,1.11-.42,2.44-.88,3.43.17s.47,2.57.57,3.88c.05.77-.69.56-1.16.61-1.27.13-2.59.15-3.4,1.39-.18.28-.63.58-.22,1s.73.12,1-.14A3.17,3.17,0,0,1,31,44.7c.57,0,1.48-.37,1.46.66s.55,2.07-.59,2.58a20.55,20.55,0,0,1-3.82,1.2c-.72.17-1.08-.58-1.52-1a1.63,1.63,0,0,0-1.78-.29c.64.74,1.26,1.44,1.87,2.16a1.54,1.54,0,0,0,1.73.49,12.62,12.62,0,0,0,1.39-.6c.78-.33,1.51-1.44,2.35-.76S32.51,51.05,32.44,52ZM32.36,22.1A2,2,0,0,1,30,23.35c-.63-.09-1.24-.32-1.87-.37a3.84,3.84,0,0,0-4,2.88,4,4,0,0,0,2.1,4.51,17.18,17.18,0,0,0,2.15.77c.32.1.78.39,1-.16a.69.69,0,0,0-.49-.91c-.54-.19-1.12-.29-1.64-.51C25.81,29,24.89,28,25.34,26.3s1.55-2.44,3.42-2.12c.75.13,1.52.17,2.28.27.47.06,1.15-.57,1.34,0a3.61,3.61,0,0,1-.06,2.24c-.23.62-1,.26-1.57.24a4.85,4.85,0,0,1-.92-.23c-.42-.1-.82,0-.93.42s.29.61.69.66l.19,0c2.88.69,3,.92,2.75,4a2.79,2.79,0,0,1-1.72,2.54,2.16,2.16,0,0,1-2.71-.81A4.22,4.22,0,0,0,25,32.19,21.5,21.5,0,0,0,16,32.7c-.43.13-1.55.9-1.48-.53,0-.78-.7-1.94,1-2.14s3.11-1.08,4.86-.52a1.8,1.8,0,0,0,1.85-.75c-2.61-1.3-5.08-.06-7.56.26.21-3.28,1.08-3.93,4.05-3.16a11.21,11.21,0,0,0,1.1.32c1.14.17,2.34.42,3.19-.68a3.34,3.34,0,0,0,.38-3.61,20.11,20.11,0,0,0-1.12-2c-1.63-2.73-1.33-3.81,1.67-5.52.17,1.1.33,2,.46,3a3.62,3.62,0,0,0,5.28,3c.28-.12.61-.25.54-.64a.52.52,0,0,0-.58-.39c-.19,0-.38,0-.57,0-3.76-.31-4.24-.85-4.15-4.62a1.93,1.93,0,0,1,.74-1.49c1.07-.9,4.67-1.22,5.92-.53.94.52,1,.91.8,3.32-1.4,0-2.77-1.47-4.23-.19.08.41.37.26.56.28C32.18,16.54,33.61,18.83,32.36,22.1ZM46,17.49c1.09.9,1.87,1.86,1.8,2.84S46.13,21.41,46,22.61c.49.42.88.17,1.29-.19s.71-1,1.41-.5A3.81,3.81,0,0,1,49.9,24a.5.5,0,0,1-.27.4c-1.67.29-3.33,1.21-5,.57-1.47-.55-1.13-1.8-.61-2.89C44.7,20.65,45.82,19.41,46,17.49Zm-10.63-5a11,11,0,0,1,4,.1A1.9,1.9,0,0,1,41,14.61c.19,4.64.22,4.65-4.42,4.94-.38,0-.85-.15-.9.34s.51.67.95.66A29.12,29.12,0,0,0,40,20.39a2,2,0,0,0,1.79-1.74c.25-1.37.52-2.73.78-4.1C45.11,16,45.42,17,44.18,19.5a16.21,16.21,0,0,0-1.57,3.68c-.43,2,.41,3.07,2.47,3.09a17.94,17.94,0,0,0,3.56-.69,2.67,2.67,0,0,1,3.06,3c-.13.82-.74.49-1,.35-1.82-1-3.91.06-5.74-.79-.31-.15-.81-.18-.93.33s.32.71.66.79a4,4,0,0,0,2.25.17c1.58-.51,3,.55,4.45.82.86.15.33,1.59.27,2.42s-.83.46-1.19.28c-3.25-1.64-6.64-.64-10-.59a3,3,0,0,0-2.15,1.11c-1.66,1.73-3.4,1.35-4.23-1a9.61,9.61,0,0,1-.25-1.7c-.26-1.65-.38-3.09,2.1-2.72.61.09,1.92,0,1.8-.88s-1.21-.54-2-.37c-1.87.4-2.43-.18-2-1.94.08-.31.14-.76.51-.63,1.38.49,2.64-.28,3.95-.29,1.59,0,2.38,1.12,2.64,2.55a2.43,2.43,0,0,1-1.84,3.11c-.9.25-1.92.25-2.31,1.41,2.38.09,4.62-1.07,5.28-2.78a3.68,3.68,0,0,0-1.13-4.33A3.58,3.58,0,0,0,37,23.13c-1.79.63-3-.18-3.21-2.06a17.75,17.75,0,0,1,0-3.07c.07-.87,2.41-2,3.76-1.9.47,0,.91.46,1.52.08-.85-1.66-2.08-.88-3.26-.64-.7.14-1.55,1.51-2.16-.05A2.57,2.57,0,0,1,35.38,12.45ZM52,35.21c-.12.82-.29,1.63-.43,2.4-.33.16-.54-.18-.71-.15-1.85.32-3.65.62-4.17-2,0-.18-.57-.41-.83-.37C44,35.45,43.64,37,43.3,38.37c-.25,1.07-.33,2.37,1.19,2.55,1.2.15,2,1.42,3.52,1A3.56,3.56,0,0,0,45.55,40c-.63-.1-1.39-.13-1.27-1.06s.22-2.15,1.29-2.62c.81-.35.95.53,1,1A1.66,1.66,0,0,0,49,38.84c1.57-.46,1.68.42,1.53,1.49a11.43,11.43,0,0,1-3.37,6.39c-.26-2.63-1.62-3.46-4-2.82-.92.25-1.38-.47-1.82-1.11a4.26,4.26,0,0,0-3.49-1.66c-.38,0-.85,0-.94.43s.37.72.71.71a4.31,4.31,0,0,1,4,2.44c.52.87,1.66.41,2.52.35,1.34-.11,1.91.46,1.85,1.77a7,7,0,0,1,0,.77c-.54,3.34-7.86,7.22-10.95,5.8a3.28,3.28,0,0,1-1.2-3.88.93.93,0,0,1,1.45-.35c.6.36,1.18.75,1.79,1.1a1.9,1.9,0,0,0,2.72-.46,3.37,3.37,0,0,1,2.49-1.7c-1.16-1-1.9-.7-2.57.27a1.71,1.71,0,0,1-2.65.45,11.18,11.18,0,0,0-1.53-.75c-.61-.27-1.74.4-1.77-.87,0-.78-.49-1.88.36-2.3a2.9,2.9,0,0,1,2.9.45c.1.07.17.23.28.26.46.14.59,1.35,1.27.54.46-.55,0-1.2-.49-1.67a3.42,3.42,0,0,0-2.33-.74c-2.23-.1-2.27-.13-2.07-2.62.15-1.83,1.21-2.75,2.88-2.48.31.05.61.19.92.25,2.66.57,3.43.12,4.47-2.68-1-.39-1.22.42-1.53,1a1.69,1.69,0,0,1-2.27.84c-1.21-.42-2.37-.93-3.67-.28-.63.31-.74-.18-.74-.69,0-.76,0-1.52,0-2.63,2.18,1.91,4,1.41,5.59-.44a1.85,1.85,0,0,1,1-.49,22.69,22.69,0,0,1,11.07.7A.76.76,0,0,1,52,35.21Z"/></g></g></svg>