<?xml version="1.0" encoding="utf-8"?>
<!-- Generator: Adobe Illustrator 21.1.0, SVG Export Plug-In . SVG Version: 6.00 Build 0)  -->
<svg version="1.1" xmlns="http://www.w3.org/2000/svg" xmlns:xlink="http://www.w3.org/1999/xlink" x="0px" y="0px"
	 viewBox="0 0 53 53" style="enable-background:new 0 0 53 53;" xml:space="preserve">
<style type="text/css">
	.st0{fill:#FFFFFF;}
</style>
<g id="Layer_1">
	<path d="M51.2,14.4c0.4,2.6,0.2,4.8-0.4,6.7c-2.8-3.2-7-5.2-11.6-5.2c-8.5,0-15.5,6.9-15.5,15.5c0,5.1,2.5,9.6,6.3,12.4
		c-2.1,2.8-3.7,5.4-3.8,7c-0.1-1.7-1.7-4.2-3.8-6.7c-2-2.6-4.6-5.3-6.7-7.3c-2.6-2.7-6.1-4.9-9-7.6c-3.5-3.3-6.1-7.4-5.1-14
		c0.6-4.3,2.6-7.4,5.1-9.4c3.3-2.6,13.8-5.8,19.5,4.4l0.1,0.6C28,6.2,30.3,4,34.4,2.8c5.4-1.4,11.8,0.5,15,6.3
		C50.2,10.6,50.8,12.4,51.2,14.4z"/>
</g>
<g id="Layer_2">
	<circle cx="39.5" cy="31.5" r="10"/>
	<path class="st0" d="M38.9,27.5c0-0.9-1.7-1-1.7-1h-1.7v-2h7v2h-1.9c0.3,0.1,0.4,0.6,0.5,1h1.4v2h-1.2c-0.2,1.9-1.7,2.9-3.4,2.9
		l4.7,6.1h-2.4l-4.7-6.1v-1.9h1.7c1.1,0.1,1.7-0.2,1.7-1h-3.4v-2H38.9z"/>
</g>
</svg>
