<svg xmlns="http://www.w3.org/2000/svg" viewBox="0 0 908.27 109"><defs><style>.cls-1{isolation:isolate;font-size:99.86px;font-family:Marbold-Normal, Marbold;} .Abhiyantran17{fill:#fff;}</style></defs><title>Asset 1</title><g id="Layer_2" data-name="Layer 2"><g class="Abhiyantran17"><path id="N" d="M778,79.3c-11.1-12-37.4-39.4-37.4-39.4V76.6h-19V8.8c5.9,0,17.6.1,17.6.1s31.2,36.8,32.7,38.4V9h19.4V93.5Z"/><path id="A" d="M707.1,9.1l.3,55.5s-13.8,2.9-19.5,4.2V35.1c-3.2,5.3-25.4,42.2-25.4,42.2H643.8c1.3-2.6,27.1-49.3,37.7-68.2Z"/><path id="R" d="M617.5,50.3c5.5,8.8,10.9,17.3,16.7,26.5-6.7,0-19.2-.1-19.2-.1s-8.2-13.2-12-18.8c-3.7-6.1-5.4-5.9-13-5.9V76.6H570.8s-.1-64.8-.2-67.7c19.7.1,27.7.1,41.7,0,12.5-.1,22.2,10.6,22,21.7-.1,8.1-4.5,13.5-11.3,17.1C621.3,48.6,619.6,49.3,617.5,50.3ZM589.9,21.6V38.3l8.9-.1s7.1,0,10.3-1,6.2-3.3,5.9-7.6-3-5.8-6.3-6.9a40.71,40.71,0,0,0-7-1C597.2,21.4,595,21.6,589.9,21.6Z"/><path id="T" d="M559.7,9V21.5H534.6V76.7H515.3v-55H490.4V9.1C513.4,9,536.3,9,559.7,9Z"/><path id="N-2" data-name="N" d="M469.8,79.3c-11.1-12-37.4-39.4-37.4-39.4V76.6h-19V8.8c5.9,0,17.6.1,17.6.1s31.2,36.8,32.7,38.4V9h19.4V93.5C478.7,88.8,474.2,84.1,469.8,79.3Z"/><path id="A-2" data-name="A" d="M401.4,9.1l.3,55.5s-13.8,2.9-19.5,4.2V35.1c-3.2,5.3-25.4,42.2-25.4,42.2H338.1C339.4,74.6,365.3,28,375.8,9Z"/><path id="Y" d="M309.7,31.1,329.2,8.6H348c-8.5,10-29.4,33.9-29.4,33.9s-.1,23.5-.1,34H300.9c-.1-1.2-.3-34.5-.3-34.5L271.4,8.6l19.6.2Z"/><path id="I" d="M242.1,64.3V9h18.6V68.3C254.4,66.9,248.3,65.6,242.1,64.3Z"/><path id="H" d="M157.5,76.7V9h18.4V38.4h32.4V10l18.5-1V64.1L208,68.2V51.7H176.7v25Z"/><path id="B" d="M97.1,51.5V68.3c-6.2-1.4-19.2-4.4-19.2-4.4V8.8h7s22-.5,33,.2c5.6.3,11.4.8,16.4,3.4,10.9,4.5,9,23.7.9,28.5-.8.5-1.7,1-3,1.8,1.7.6,2.9,1,4.1,1.4,7.6,2.4,11.7,7.5,11.9,14.6s-3.2,11.6-11,14.7c-10.6,4.3-21.7,3.8-33.2,3.6V63.9c3.8,0,7.7.1,11.6-.1,2.3-.1,4.9-.3,6.8-1.4a6.68,6.68,0,0,0,2.9-4.9c0-1.5-1.6-3.3-3-4.5a6.64,6.64,0,0,0-4.2-1.4C111.4,51.5,104.5,51.5,97.1,51.5Zm.7-29.9V32.9c6.3,0,12.3.1,18.3,0,4.5-.1,6.3-2,6.4-5.7,0-3.5-1.7-5.3-6.1-5.5C110.3,21.4,104.1,21.6,97.8,21.6Z"/><path id="A-3" data-name="A" d="M63.3,8.8l.3,55.5s-13.8,2.9-19.5,4.2V34.9c-3.2,5.3-25.4,42.2-25.4,42.2H0C1.3,74.3,27.2,27.6,37.7,8.7Z"/>
<text class="cls-1 Abhiyantran17" transform="translate(800.57 89.93) scale(0.93 1)">&apos;17</text></g></g></svg>