<?xml version="1.0" encoding="utf-8"?>
<!-- Generator: Adobe Illustrator 21.1.0, SVG Export Plug-In . SVG Version: 6.00 Build 0)  -->
<svg version="1.1" id="Layer_1" xmlns="http://www.w3.org/2000/svg" xmlns:xlink="http://www.w3.org/1999/xlink" x="0px" y="0px"
	 viewBox="0 0 908.3 109" style="enable-background:new 0 0 908.3 109;" xml:space="preserve">
<style type="text/css">
	.st0{fill:#FFF;}
</style>
<g>
	<path id="N" class="st0" d="M778,79.3c-11.1-12-37.4-39.4-37.4-39.4v36.7h-19V8.8c5.9,0,17.6,0.1,17.6,0.1s31.2,36.8,32.7,38.4V9
		h19.4v84.5L778,79.3z"/>
	<path id="A" class="st0" d="M707.1,9.1l0.3,55.5c0,0-13.8,2.9-19.5,4.2V35.1c-3.2,5.3-25.4,42.2-25.4,42.2h-18.7
		c1.3-2.6,27.1-49.3,37.7-68.2L707.1,9.1z"/>
	<path id="R" class="st0" d="M617.5,50.3c5.5,8.8,10.9,17.3,16.7,26.5c-6.7,0-19.2-0.1-19.2-0.1s-8.2-13.2-12-18.8
		c-3.7-6.1-5.4-5.9-13-5.9v24.6h-19.2c0,0-0.1-64.8-0.2-67.7c19.7,0.1,27.7,0.1,41.7,0c12.5-0.1,22.2,10.6,22,21.7
		c-0.1,8.1-4.5,13.5-11.3,17.1C621.3,48.6,619.6,49.3,617.5,50.3z M589.9,21.6v16.7l8.9-0.1c0,0,7.1,0,10.3-1s6.2-3.3,5.9-7.6
		s-3-5.8-6.3-6.9c-2.3-0.5-4.6-0.9-7-1C597.2,21.4,595,21.6,589.9,21.6z"/>
	<path id="T" class="st0" d="M559.7,9v12.5h-25.1v55.2h-19.3v-55h-24.9V9.1C513.4,9,536.3,9,559.7,9z"/>
	<path id="N-2" class="st0" d="M469.8,79.3c-11.1-12-37.4-39.4-37.4-39.4v36.7h-19V8.8c5.9,0,17.6,0.1,17.6,0.1s31.2,36.8,32.7,38.4
		V9h19.4v84.5C478.7,88.8,474.2,84.1,469.8,79.3z"/>
	<path id="A-2" class="st0" d="M401.4,9.1l0.3,55.5c0,0-13.8,2.9-19.5,4.2V35.1c-3.2,5.3-25.4,42.2-25.4,42.2h-18.7
		c1.3-2.7,27.2-49.3,37.7-68.3L401.4,9.1z"/>
	<path id="Y" class="st0" d="M309.7,31.1l19.5-22.5H348c-8.5,10-29.4,33.9-29.4,33.9s-0.1,23.5-0.1,34h-17.6
		c-0.1-1.2-0.3-34.5-0.3-34.5L271.4,8.6L291,8.8L309.7,31.1z"/>
	<path id="I" class="st0" d="M242.1,64.3V9h18.6v59.3C254.4,66.9,248.3,65.6,242.1,64.3z"/>
	<path id="H" class="st0" d="M157.5,76.7V9h18.4v29.4h32.4V10l18.5-1v55.1L208,68.2V51.7h-31.3v25H157.5z"/>
	<path id="B" class="st0" d="M97.1,51.5v16.8c-6.2-1.4-19.2-4.4-19.2-4.4V8.8h7c0,0,22-0.5,33,0.2c5.6,0.3,11.4,0.8,16.4,3.4
		c10.9,4.5,9,23.7,0.9,28.5c-0.8,0.5-1.7,1-3,1.8c1.7,0.6,2.9,1,4.1,1.4c7.6,2.4,11.7,7.5,11.9,14.6s-3.2,11.6-11,14.7
		c-10.6,4.3-21.7,3.8-33.2,3.6V63.9c3.8,0,7.7,0.1,11.6-0.1c2.3-0.1,4.9-0.3,6.8-1.4c1.6-1.1,2.7-2.9,2.9-4.9c0-1.5-1.6-3.3-3-4.5
		c-1.2-0.9-2.7-1.4-4.2-1.4C111.4,51.5,104.5,51.5,97.1,51.5z M97.8,21.6v11.3c6.3,0,12.3,0.1,18.3,0c4.5-0.1,6.3-2,6.4-5.7
		c0-3.5-1.7-5.3-6.1-5.5C110.3,21.4,104.1,21.6,97.8,21.6z"/>
	<path id="A-3" class="st0" d="M63.3,8.8l0.3,55.5c0,0-13.8,2.9-19.5,4.2V34.9c-3.2,5.3-25.4,42.2-25.4,42.2H0
		c1.3-2.8,27.2-49.5,37.7-68.4L63.3,8.8z"/>
	<path class="st0" d="M819.9,13.5c2.2,2.1,3.7,4.4,4.5,7c0.2,0.9,0.3,1.7,0.5,2.4c0.1,0.7,0.2,1.3,0.2,1.8c0,1.5-0.2,2.9-0.6,4.1
		c-0.4,1.2-1,2.5-1.8,3.9c-1,2.1-2.4,3.9-4.2,5.4c-2.2,1.9-4.7,2.8-7.4,2.8c0.5-1,0.8-2.1,1-3.2s0.3-2.3,0.3-3.4
		c0-0.9-0.1-1.8-0.2-2.6c-3,0-5.5-1-7.7-3.1c-2.1-2.1-3.2-4.6-3.2-7.5c0-3.1,1.1-5.7,3.2-7.8c2.1-2.1,4.7-3.2,7.7-3.2
		C814.9,10.1,817.5,11.3,819.9,13.5z"/>
	<path class="st0" d="M848,10v80h-18V10H848z"/>
	<path class="st0" d="M903,10v20l-26.6,60h-21.6l26.3-60H855V10H903z"/>
</g>
</svg>
