<?xml version="1.0" encoding="utf-8"?>
<!-- Generator: Adobe Illustrator 21.1.0, SVG Export Plug-In . SVG Version: 6.00 Build 0)  -->
<svg version="1.1" xmlns="http://www.w3.org/2000/svg" xmlns:xlink="http://www.w3.org/1999/xlink" x="0px" y="0px"
	 viewBox="0 0 755 619" style="enable-background:new 0 0 755 619;" xml:space="preserve">
<style type="text/css">
	#AbhiyantranLogo{fill:white;}
</style>
<g id="AbhiyantranLogo">
	<g id="Base">
		<path d="M418.7,428h-83.5c-0.4,0-0.7-0.3-0.7-0.7c0-5-0.2-10,0.2-14.9c0.1-1.2,1.5-2.7,2.6-3.4c5.3-2.8,10.5-5.7,16.1-7.8
			c2.4-0.9,5.7-0.4,8.4,0.2c2.4,0.5,4.7,1.9,6.7,3.4c5.6,4.4,11.1,3.9,16.4-0.1c7.8-5.7,15.1-5.3,22.9,0c3.5,2.4,7.5,3.9,11.3,5.7
			c0.2,0.2,0.4,0.4,0.4,0.6v16.3C419.4,427.7,419.1,428,418.7,428z"/>
		<path d="M369.6,449c-1.7,0-3.2,1.2-3.6,2.8c-0.9,3.9-4.3,4.3-8.5,4.1c-5.4-0.2-10.5,0-16.6-0.1c-1.9-0.1-3.4-0.4-3.8-2.2
			c-0.9-4.7-1.7-9.2-2.6-13.9c-0.4-2.2,1.2-4.2,3.4-4.2l0,0c25.4-0.3,50.7-0.6,76-0.9c5.4-0.1,5.8,0.4,4.6,5.7
			c-1,4.1-1.9,8.3-3.2,12.3c-0.5,1.3-2.4,2.8-3.7,2.9c-5.5,0.3-11,0-16.5,0.2c-2.9,0.2-4.5-0.9-5-3.6s-2.1-3.3-4.7-3.3
			C380.3,449,375.2,449,369.6,449z"/>
		<path d="M342.7,470.5h21c0.3,0,0.6-0.2,0.7-0.5c1.3-4.5,2.7-8.9,3.9-13.4c0.6-2.4,1.8-3.2,4.3-3.3c14.4-0.4,14.6-0.5,19.2,12.9
			c1.2,3.3,2.6,4.7,6.3,4.5c4.8-0.3,9.6-0.1,14.5-0.1c0.5,0,0.9,0.5,0.6,1c-5.6,10.8-19.8,16.7-40.9,16.3
			c-12.3-0.3-22-6.1-30.1-16.3C341.7,471.2,342.1,470.5,342.7,470.5z"/>
		<path d="M328.6,467.8v-8h34c-0.5,7.4-1.1,8-8.6,8C345.7,467.8,337.4,467.8,328.6,467.8z"/>
		<path d="M391.8,459.1h34.7v8.6c-9.5,0-19,0.4-28.3-0.3C395.9,467.2,394.1,460.7,391.8,459.1z"/>
	</g>
	<g id="Outer">
		<path d="M296.5,367.7c0.2-0.2,0.5-0.2,0.9-0.1c1.6,1,3.4,1.8,4.8,3c12.3,10.9,20.7,24,22.5,40.6c1.1,10,1.8,20.1,2.1,30.2
			c0,0.9-1.2,1-1.4,0.2c-6-25.8-12.4-51.3-28.9-73C296.2,368.3,296.2,367.9,296.5,367.7L296.5,367.7z"/>
		<path d="M429.6,439.3c-1.8-35.4,8.6-59.9,28.1-70.9c0.7-0.4,1.4,0.5,0.9,1.1c-8.3,9.8-13.2,21.5-17.1,33.4
			c-4,11.9-7.1,24.1-10.5,36.5C430.8,440.1,429.7,440,429.6,439.3z"/>
	</g>
	<path id="Arc" d="M313,367.9c0.7,0.4,1.4-0.5,0.9-1c-2.6-3.2-5-6.3-7.8-9.2c-15.4-16.6-23.9-36.1-26.5-58.6
		c-2.3-19.5,1.1-38.1,9.4-55.4c10.2-21.3,26.2-37.5,48.2-47.2c12.5-5.5,25.4-9.4,39.2-9c42.1,1.2,77.7,25.5,92.7,67.3
		c5.7,15.8,6.7,32.3,4.4,48.4c-3.9,26.4-16.4,48.6-37.8,65.2c-0.7,0.5-1.2,1.1-1.9,1.7c-0.2,0.2-0.3,0.5-0.2,0.9l0,0
		c0.2,0.3,0.6,0.5,0.9,0.3c1.7-0.9,3.5-1.8,5.2-2.7c32.5-17.7,54.4-44.4,65.9-79.2c3.6-11,5.3-23,6.3-34.7
		c2.1-24.3-2.1-47.7-12.9-69.6c-13-26.7-32.2-47.8-58.7-62c-12.6-6.8-25.8-12.3-39.7-14.1c-11.8-1.6-24-1-36-0.7
		c-7.4,0.2-14.9,1.3-22,3.3c-22.3,6.2-41.8,17.1-58.4,33.6c-14.8,14.7-26.1,31.4-33.2,50.9c-4.8,13.3-7.8,25.6-8.2,41.3
		c-0.4,11.5-0.2,22.4,1.4,33.4c2.2,14.8,7.3,28.9,14.6,42c10.4,18.7,23.9,34.7,41.5,46.9C304.3,362.7,308.7,365.3,313,367.9z"/>
	<g>
		<path id="Alphabet" d="M341.8,279.6c6.5,2.2,18.3,6.1,18.3,6.1s2.6,13.2,3.8,18.7h26.9l5.7-20c0,0,11.5-3.1,16.8-4.7
			c-0.6,4.4-9.5,44.4-13.2,60.9c-3.7,16.7-7.4,33.3-10.9,50c-1.6,7.8-1.5,7.8-9.3,7.8c-12,0-11.9,0-14.6-11.9
			c-6.6-29.5-13.3-59.2-19.8-88.7C344.4,292.3,343.3,286.7,341.8,279.6z M368.1,322.8c3.2,16.1,6.2,31.5,9.3,46.9
			c3.1-15.6,6.2-31.1,9.4-46.9L368.1,322.8L368.1,322.8z"/>
	</g>
	<path d="M344.9,308.6l-38-39.3c3.3,0.9,21.5,6,27.4,7.8c3,0.9,4.6,2.4,5.2,5.7C341.2,291.5,343.2,300,344.9,308.6z"/>
	<path d="M412.2,305.3c0,0,3.8-18.3,5.4-25.7c0.2-0.8,1-1.9,1.7-2.1c9.3-2.8,18.6-5.5,28.8-8.5C436.6,280.8,412.2,305.3,412.2,305.3
		z"/>
</g>
</svg>
