<svg xmlns="http://www.w3.org/2000/svg" viewBox="0 0 89.83 52.22"><defs><style>.cls-1{fill:#878787;}</style></defs><title>Asset 4</title><g id="Layer_2" data-name="Layer 2"><g id="Layer_1-2" data-name="Layer 1"><path class="cls-1" d="M89,48.94q-8.87-6.79-17.73-13.59c-.33-.25-.37-.42-.18-.79a12.65,12.65,0,0,0,1.45-6.69,13,13,0,0,0-25.93.66c0,.43,0,.85,0,1.28a6.32,6.32,0,0,0,.12.94c1,5,3.84,8.48,8.65,10.11a12.56,12.56,0,0,0,13-2.73c.31-.27.47-.25.77,0Q75,42.68,81,47.24c2,1.52,4,3.05,6,4.56a1.74,1.74,0,0,0,2.85-1A1.8,1.8,0,0,0,89,48.94ZM59.52,38.07A9.53,9.53,0,1,1,69,28.59,9.52,9.52,0,0,1,59.52,38.07Z"/><path class="cls-1" d="M39.19,29.82C41.82,24.35,44.45,18.89,47,13.4c.36-.76.72-1.28,1.64-1.07a.39.39,0,0,0,.22,0c.34-.14.49,0,.64.32.72,1.32,1.46,2.62,2.18,3.94.15.28.28.38.58.17a6.35,6.35,0,0,1,1.11-.62c.34-.14.33-.29.17-.57-.73-1.29-1.44-2.59-2.18-3.87a.75.75,0,0,1,0-1,3.75,3.75,0,0,0-.51-4.95,3.85,3.85,0,0,0-5-.24A3.62,3.62,0,0,0,45,10.37a1.86,1.86,0,0,1,0,2.39c-.08.14-.14.3-.22.45Q41.08,21,37.35,28.77c-.12.25-.21.38-.53.29a2.78,2.78,0,0,0-1.38,0c-.32.08-.43-.05-.55-.28q-3.61-6.69-7.24-13.38a.64.64,0,0,1,0-.76,3.67,3.67,0,0,0,.51-2.82,3.84,3.84,0,0,0-4.2-3A3.77,3.77,0,0,0,20.67,13a1,1,0,0,1-.61,1.2Q13.47,18.3,6.9,22.42a.72.72,0,0,1-1,0,3.79,3.79,0,0,0-4.42.1A3.84,3.84,0,0,0,.2,26.79a3.76,3.76,0,0,0,3.59,2.58,3.76,3.76,0,0,0,3.79-4.43.59.59,0,0,1,.34-.69c1-.6,2-1.22,3-1.84q5.33-3.32,10.65-6.65a.6.6,0,0,1,.78,0,3.45,3.45,0,0,0,3,.55.47.47,0,0,1,.64.28q3.58,6.65,7.18,13.28a.53.53,0,0,1-.06.68,3.78,3.78,0,0,0,.51,5.09,3.85,3.85,0,0,0,5,.11,3.77,3.77,0,0,0,.7-5.1A.72.72,0,0,1,39.19,29.82ZM48.32,6.11a2.5,2.5,0,0,1,2.44,2.41A2.51,2.51,0,0,1,48.36,11a2.48,2.48,0,0,1-2.48-2.41A2.48,2.48,0,0,1,48.32,6.11ZM3.77,28a2.43,2.43,0,0,1,.09-4.86A2.43,2.43,0,0,1,3.77,28ZM24.38,15a2.42,2.42,0,1,1,2.48-2.32A2.41,2.41,0,0,1,24.38,15Zm11.7,20.22a2.44,2.44,0,0,1,0-4.88,2.47,2.47,0,0,1,2.44,2.46A2.45,2.45,0,0,1,36.08,35.25Z"/><path class="cls-1" d="M67.54,17.13a3.68,3.68,0,0,1,.53.4c.32.33.48.2.69-.14,1.8-2.92,3.62-5.82,5.41-8.74.42-.69.74-1.48,1.66-1a3.83,3.83,0,0,0,3.89-4.28A3.77,3.77,0,0,0,76.87.11a3.83,3.83,0,0,0-4.06,1.53A3.74,3.74,0,0,0,72.8,6a.66.66,0,0,1,0,.88c-1.86,3-3.7,5.94-5.55,8.91C66.77,16.59,66.76,16.59,67.54,17.13ZM76,1.41a2.42,2.42,0,1,1-2.45,2.37A2.43,2.43,0,0,1,76,1.41Z"/><path class="cls-1" d="M64.22,21.5c-.3-.19-.43-.13-.61.15-.63,1-1.29,2.07-1.93,3.12-.16.27-.31.4-.66.28a3.35,3.35,0,0,0-1.81-.1.42.42,0,0,1-.56-.27c-.48-.89-1-1.78-1.48-2.67-.8-1.43-.87-1.44-2.24-.49-.26.18-.29.31-.14.58.7,1.22,1.36,2.46,2.07,3.68a.55.55,0,0,1,0,.72,3.62,3.62,0,0,0-.26,4,3.67,3.67,0,0,0,3.5,2,6.91,6.91,0,0,0,.82-.11A3.79,3.79,0,0,0,63.32,27a.82.82,0,0,1,0-1c.49-.74,1-1.5,1.41-2.26C65.64,22.38,65.63,22.38,64.22,21.5Zm-4.29,9.63a2.44,2.44,0,0,1,0-4.88,2.5,2.5,0,0,1,2.42,2.42A2.45,2.45,0,0,1,59.93,31.13Z"/></g></g></svg>