<svg xmlns="http://www.w3.org/2000/svg" viewBox="0 0 100.71 41.75"><defs><style>.cls-1{fill:#878787;}</style></defs><title>Asset 5</title><g id="Layer_2" data-name="Layer 2"><g id="Layer_1-2" data-name="Layer 1"><path class="cls-1" d="M38.68,1.8H3.39C.84,1.81,0,2.62,0,5.1Q0,19.83,0,34.57c0,2.48.85,3.3,3.39,3.3H38.68c2.54,0,3.39-.83,3.39-3.3q0-14.73,0-29.47C42.07,2.62,41.23,1.81,38.68,1.8ZM39,30.27C36,27,33.12,24,30.39,20.94c-1.24-1.39-2.26-1.41-3.63-.21-2.35,2.06-2.42,2-4.51-.22C21.1,19.27,20,18,18.82,16.77c-1.94-2.1-2.86-2.1-4.66.07Q9.3,22.68,4.46,28.54c-.38.46-.78.92-1.46,1.71V23.6c0-5.5,0-11,0-16.51,0-1.71.59-2.31,2.3-2.3q15.76.08,31.53,0c1.41,0,2.26.3,2.26,1.95C39,14.43,39,22.11,39,30.27Z"/><path class="cls-1" d="M31.53,7.81a4.39,4.39,0,0,0-4.48,4.49,4.51,4.51,0,1,0,9-.06A4.4,4.4,0,0,0,31.53,7.81Z"/><path class="cls-1" d="M99.43,4.76a2.23,2.23,0,0,0-2.62.45.7.7,0,0,1-.71.23l-6.28-1.1L75.5,1.83a.48.48,0,0,1-.44-.35,2.28,2.28,0,0,0-3-1.35A3.21,3.21,0,0,0,70.95,1a3.86,3.86,0,0,0-.31,1.26c0,.12,0,.27,0,.36.35.58-.06.85-.42,1.17L62,11.07c-.09.08-.19.15-.29.22l-2.56,2.29c-.26.23-.54,0-.81,0H58l-.64.2-.14.1a2.22,2.22,0,0,0-1.11,2.3A2.15,2.15,0,0,0,57.65,18a.6.6,0,0,1,.38.4q4.19,9.51,8.39,19a.73.73,0,0,1,0,.81,2.24,2.24,0,0,0,.6,3,2.27,2.27,0,0,0,3.11-.46,1,1,0,0,1,.52-.38l18.76-5.37a.8.8,0,0,1,.63.06,2.27,2.27,0,0,0,2.74-.61,2.23,2.23,0,0,0,0-2.8.78.78,0,0,1-.14-.8q1.26-4.7,2.5-9.41L98.34,9.47A.46.46,0,0,1,98.8,9a2.27,2.27,0,0,0,1.89-1.88A2.3,2.3,0,0,0,99.43,4.76Zm-3,3.18a.38.38,0,0,1,0,.48q-1.76,2.63-3.5,5.28L90.12,18c-.09.14-.14.36-.46.25a2.22,2.22,0,0,0-1.44.1c-.16.07-.25,0-.35-.12L84.5,14.46c-.1-.11-.15-.19-.07-.35a2.09,2.09,0,0,0,.19-1.23c0-.21,0-.32.23-.41L96.12,7.9C96.23,7.85,96.34,7.75,96.46,7.94ZM87.19,19.13c-.16.15-.1.51-.45.46L82.9,19l-7.11-1c-.72-.11-1.43-.21-2.14-.34-.13,0-.34.08-.37-.2s.17-.31.34-.37L78,15.25l2-.82a.36.36,0,0,1,.52.12,2.22,2.22,0,0,0,2.92.59.3.3,0,0,1,.45.08l3.22,3.57C87.25,18.89,87.34,19,87.19,19.13ZM74.93,3.28c.2-.52.46-.53.92-.45,4,.71,7.92,1.39,11.88,2.08l8.18,1.44c.18,0,.29.06.24.28s-.12.31-.31.39L85.62,11.16l-.41.18c-.57.28-1.07.49-1.66-.1a1.71,1.71,0,0,0-1.8-.26c-.29.1-.4,0-.56-.19Q78.13,7.4,75.07,4A.6.6,0,0,1,74.93,3.28ZM60.38,13.71l7.34-6.46c.12-.11.26-.2.39-.31l3.16-2.82c.12-.11.2-.12.33,0a3.81,3.81,0,0,0,.42.26l.37.14a3.7,3.7,0,0,0,1.33-.08c.19-.15.37-.25.49.06l4.14,4.55c.7.77,1.39,1.55,2.1,2.32.15.17.21.27,0,.48a1.86,1.86,0,0,0-.41,1.31c0,.21-.08.29-.25.36l-6.71,2.73a.35.35,0,0,1-.46-.1,2.25,2.25,0,0,0-3.64.45.49.49,0,0,1-.6.29l-4.51-.67L62.86,16,62.4,16a5.4,5.4,0,0,1-1.18-.18.46.46,0,0,1-.37-.06c-.14,0-.26,0-.28-.18a4.6,4.6,0,0,0-.17-.64l-.15-.22c-.12-.17-.37-.37-.34-.49S60.21,13.86,60.38,13.71Zm8,23.11c0,.15,0,.44-.25.37s-.64.44-.89-.14Q63.15,27.73,59,18.44l-.14-.34a2.28,2.28,0,0,0,1.48-1.25c.1-.23.24-.18.4-.16l3.4.49,4.11.61c.29,0,.47.11.53.45a2.05,2.05,0,0,0,1.36,1.57c.24.09.28.19.24.45-.33,2.57-.63,5.15-1,7.72-.26,2.06-.52,4.13-.78,6.19C68.59,35.05,68.49,35.94,68.38,36.82Zm1.36.85c-.56-.32-.58-.38-.36-1.11a1.62,1.62,0,0,1,.09-.75,7.74,7.74,0,0,1,.12-1.16c.06-.28.06-.57.12-.85a.56.56,0,0,1,0-.17,7.25,7.25,0,0,1,.12-1.15l.09-.55a10,10,0,0,1,.18-1.54,1.09,1.09,0,0,1,.08-.54c0-.92.21-1.82.31-2.73.21-1.86.45-3.71.68-5.56.06-.46.13-.93.17-1.39,0-.2.13-.24.28-.29A2.16,2.16,0,0,0,73,18.73a.29.29,0,0,1,.38-.19c2.11.33,4.23.64,6.34,1l.7.11a.46.46,0,0,1,.37.07,4.23,4.23,0,0,1,1.18.18,1.18,1.18,0,0,1,.65.09h0a5.33,5.33,0,0,1,1,.12l.37.08a5.8,5.8,0,0,1,1.18.18.92.92,0,0,1,.56.08,5.63,5.63,0,0,1,1,.12c.18.34.19.73.39,1.06.11.17-.12.25-.21.34L81,27.53Q75.69,32.62,70.35,37.7C70.1,37.95,69.93,38,69.74,37.67ZM90,31.06A2.26,2.26,0,0,0,89,34.27L70.61,39.53A1,1,0,0,1,71,38.35q8.28-7.85,16.52-15.73c.23-.22.4-.28.68-.11a.89.89,0,0,0,.51.16c.48-.06.5.24.56.58q.56,3.53,1.15,7C90.48,30.66,90.5,30.88,90,31.06ZM97.45,9.22l-4.24,16-1.4,5.31a.93.93,0,0,1-.14.37c-.24,0-.22-.18-.24-.31-.17-1-.35-2-.52-3.07-.26-1.6-.51-3.21-.78-4.81a.32.32,0,0,1,.16-.4A2.23,2.23,0,0,0,90.85,19c-.16-.22-.08-.33,0-.5l6.24-9.42c.06-.1.09-.3.27-.24S97.49,9.08,97.45,9.22Z"/></g></g></svg>