<svg xmlns="http://www.w3.org/2000/svg" viewBox="0 0 63.17 53.02"><defs><style>.cls-1{fill:#878787;}.cls-2{fill:#fff;}</style></defs><title>Asset 7</title><g id="Layer_2" data-name="Layer 2"><g id="Layer_1-2" data-name="Layer 1"><path class="cls-1" d="M49.07,26.84q0-8.59,0-17.18c0-.54,0-.82-.72-.87-2.06-.15-4.12-.06-6.18-.07-.58,0-.74-.13-.74-.73,0-2,.07-3.94,0-5.92a.93.93,0,0,0-.88-1,51.41,51.41,0,0,0-7.26-1,39.28,39.28,0,0,0-10.76,1c-.44.09-.61.33-.64.84-.11,2-.19,4-.13,6,0,.61-.13.81-.77.8-2,0-4,0-6,0-.78,0-.91.23-.91.95,0,7.06,0,14.13,0,21.19h0c0,7.06,0,14.13,0,21.19,0,.76.13,1,1,1q16.56,0,33.12,0c.78,0,1-.17,1-1C49.06,43.64,49.07,35.24,49.07,26.84ZM37.85,8.1c0,.53-.2.63-.67.62-1.87,0-3.73,0-5.6,0s-3.73,0-5.6,0c-.51,0-.74-.12-.71-.69,0-1.11,0-2.22,0-3.33,0-.36.05-.54.48-.62a28.65,28.65,0,0,1,8.37-.41c1,.11,2,.21,3,.35.47.06.77.25.74.84C37.79,5.94,37.81,7,37.85,8.1Z"/><path class="cls-1" d="M9.42,8.69c-1.74.06-3.49,0-5.23,0a3.89,3.89,0,0,0-4,3A17.88,17.88,0,0,0,0,14.68Q0,28.37,0,42.06C0,44.38,0,46.69.08,49a3.85,3.85,0,0,0,4.09,4c1.78,0,3.55,0,5.33,0,.77,0,.94-.22.94-1,0-7.06,0-14.12,0-21.18s0-14.12,0-21.18C10.43,8.87,10.21,8.66,9.42,8.69Z"/><path class="cls-1" d="M63,12.15a3.55,3.55,0,0,0-3.08-3.27,36.29,36.29,0,0,0-5.2-.16c-1.94,0-1.94,0-1.94,2,0,6.81,0,13.61,0,20.81.07,6.61-.13,13.61.11,20.6,0,.7.18.91.9.89,1.81-.06,3.61,0,5.42,0a3.84,3.84,0,0,0,3-1.41,5.08,5.08,0,0,0,.94-3.47q.06-5.87,0-11.74C63,28.3,63.36,20.22,63,12.15Z"/><path class="cls-2" d="M20,25c.27-.69.59-.92,1.23-.3.34.33.84,1,1.32.41.31-.4-.28-.89-.7-1.14-1.89-1.12.21-1.65.35-2.47.48,1.15,1.16,2.11,1.65,3.17a1.5,1.5,0,0,1,0,1.77,1.6,1.6,0,0,1-1.76.35,6.18,6.18,0,0,0-1.44-.36C19.36,26.38,19.73,25.69,20,25Z"/><path class="cls-2" d="M31,45.74c-.06.77-.63,1-1.32,1.1-2.12.35-6.17-1.8-7.06-3.78-.66-1.46-.08-2.35,1.51-2.34a1.64,1.64,0,0,0,.91-.12c1.08-.84,2.07-1.84,3.57-1.92.07,0,.2-.26.18-.28s-.27-.31-.4-.3c-1.07.08-2.25,0-2.9,1.07A1.42,1.42,0,0,1,24,40c-1.41-.19-2.16.41-2.27,2a9.54,9.54,0,0,1-2.56-4.65c-.21-1,.23-1.49,1.3-1.08.83.32,1.4.14,1.63-.8.09-.36.13-1,.59-.88.67.22.91.95,1,1.64.09.52,0,1-.64,1-1,0-1.42.65-2,1.25,1,.16,2.89-.64,3.22-1.37a2.33,2.33,0,0,0-.61-2.61c-.65-.75-1.67-.72-2,.13s-.79,1.15-1.71.84c-.37-.12-.86.13-1.29.21-.62-2.38-.56-2.22,1.61-3s4,.08,6-.25c.47-.08.84.32,1.14.65,1.05,1.13,2.18,1.59,3.66.24A10.89,10.89,0,0,1,31,35.72a3.6,3.6,0,0,0-3,0c-.9.38-1.33-.16-1.71-.85-.16-.3-.35-.79-.77-.52s-.07.64.11,1c.6,1,1.33,1.67,2.65,1.16.79-.3,1.73-.62,2.42.12s.33,1.82.4,2.75c0,.54-.48.4-.82.43-.9.09-1.84.11-2.4,1-.13.2-.44.41-.16.69s.52.09.72-.1a2.24,2.24,0,0,1,1.64-.84c.4,0,1-.26,1,.47s.39,1.46-.41,1.83a14.53,14.53,0,0,1-2.7.85c-.51.12-.76-.41-1.08-.71a1.15,1.15,0,0,0-1.26-.21c.45.52.89,1,1.32,1.53a1.09,1.09,0,0,0,1.23.35,8.92,8.92,0,0,0,1-.42c.55-.24,1.07-1,1.66-.54S31.09,45,31,45.74Z"/><path class="cls-2" d="M31,24.56a1.38,1.38,0,0,1-1.64.88c-.44-.07-.88-.23-1.32-.26a2.72,2.72,0,0,0-2.83,2,2.86,2.86,0,0,0,1.48,3.19A12.15,12.15,0,0,0,28.2,31c.23.07.55.27.68-.11a.49.49,0,0,0-.34-.64c-.38-.13-.79-.21-1.16-.36-1-.43-1.67-1.1-1.35-2.31A1.84,1.84,0,0,1,28.44,26c.53.09,1.08.12,1.61.19.33,0,.81-.4.95,0a2.56,2.56,0,0,1,0,1.59c-.16.44-.73.18-1.11.17a3.43,3.43,0,0,1-.65-.16c-.3-.07-.58,0-.66.3s.2.43.49.47l.13,0c2,.49,2.14.65,1.94,2.8a2,2,0,0,1-1.21,1.8A1.53,1.53,0,0,1,28,32.62a3,3,0,0,0-2.16-.93,15.21,15.21,0,0,0-6.42.36c-.31.09-1.09.63-1-.38,0-.55-.5-1.37.72-1.51s2.2-.76,3.44-.37a1.27,1.27,0,0,0,1.31-.53c-1.85-.92-3.6,0-5.34.18.15-2.32.76-2.78,2.87-2.24a7.93,7.93,0,0,0,.78.23c.81.12,1.66.3,2.25-.48a2.36,2.36,0,0,0,.27-2.55A14.22,14.22,0,0,0,23.84,23c-1.16-1.93-.94-2.69,1.18-3.9.12.78.23,1.44.33,2.12a2.56,2.56,0,0,0,3.73,2.14c.2-.08.43-.18.38-.45a.37.37,0,0,0-.41-.27c-.14,0-.27,0-.41,0-2.66-.22-3-.6-2.94-3.27a1.37,1.37,0,0,1,.52-1.06,5.41,5.41,0,0,1,4.19-.37c.66.37.73.64.57,2.35-1,0-2-1-3-.13.06.29.26.19.4.2C30.86,20.63,31.87,22.25,31,24.56Z"/><path class="cls-2" d="M40.64,21.3c.77.64,1.32,1.32,1.28,2s-1.18.77-1.28,1.62c.35.3.62.12.92-.13s.5-.72,1-.35a2.69,2.69,0,0,1,.85,1.49.35.35,0,0,1-.19.28c-1.18.21-2.35.85-3.55.41-1-.39-.8-1.27-.43-2C39.71,23.54,40.51,22.66,40.64,21.3Z"/><path class="cls-2" d="M33.12,17.74a7.75,7.75,0,0,1,2.84.07,1.35,1.35,0,0,1,1.12,1.45c.14,3.29.16,3.29-3.13,3.5-.27,0-.6-.1-.64.24s.36.47.67.47a20.6,20.6,0,0,0,2.43-.12,1.41,1.41,0,0,0,1.27-1.23c.17-1,.37-1.93.55-2.9,1.77,1,2,1.72,1.12,3.5a11.46,11.46,0,0,0-1.11,2.61c-.31,1.43.29,2.17,1.74,2.19A12.69,12.69,0,0,0,42.5,27a1.89,1.89,0,0,1,2.17,2.11c-.09.58-.52.35-.71.25-1.29-.72-2.76,0-4.06-.56-.22-.1-.57-.13-.66.23s.23.5.47.56a2.86,2.86,0,0,0,1.59.12c1.11-.36,2.1.39,3.15.58.61.11.23,1.12.19,1.71s-.59.33-.84.2c-2.3-1.16-4.7-.46-7.06-.42a2.13,2.13,0,0,0-1.52.78c-1.18,1.22-2.41,1-3-.67a6.8,6.8,0,0,1-.17-1.2c-.19-1.17-.27-2.19,1.49-1.92.43.07,1.36,0,1.27-.62s-.86-.38-1.4-.26c-1.32.29-1.72-.13-1.4-1.37.06-.22.1-.54.36-.45,1,.35,1.87-.2,2.79-.2,1.12,0,1.68.79,1.87,1.81a1.72,1.72,0,0,1-1.3,2.2c-.64.18-1.36.18-1.63,1a3.8,3.8,0,0,0,3.73-2,2.6,2.6,0,0,0-.8-3.06,2.53,2.53,0,0,0-2.75-.56A1.55,1.55,0,0,1,32,23.84a12.56,12.56,0,0,1,0-2.17c0-.62,1.7-1.42,2.66-1.35.33,0,.65.32,1.08.06-.6-1.17-1.47-.62-2.31-.45-.5.1-1.1,1.07-1.53,0A1.82,1.82,0,0,1,33.12,17.74Z"/><path class="cls-2" d="M44.85,33.83c-.09.58-.2,1.15-.3,1.7-.23.12-.38-.13-.5-.11-1.31.23-2.58.44-2.95-1.38,0-.13-.41-.29-.59-.26-1.26.22-1.54,1.29-1.78,2.29-.18.75-.23,1.67.84,1.8.85.1,1.43,1,2.49.7a2.52,2.52,0,0,0-1.74-1.34c-.45-.07-1-.09-.9-.75s.15-1.52.91-1.85c.57-.25.67.37.72.72a1.17,1.17,0,0,0,1.67,1c1.11-.32,1.19.29,1.08,1.05A8.09,8.09,0,0,1,41.42,42c-.18-1.86-1.14-2.45-2.8-2-.65.18-1-.33-1.29-.78A3,3,0,0,0,34.86,38c-.27,0-.6,0-.67.31s.27.51.5.5a3,3,0,0,1,2.82,1.72c.37.62,1.17.29,1.78.24.95-.08,1.35.33,1.31,1.25a4.93,4.93,0,0,1,0,.54c-.38,2.36-5.56,5.1-7.74,4.1A2.32,2.32,0,0,1,32,43.94a.66.66,0,0,1,1-.25c.42.26.84.53,1.27.78a1.35,1.35,0,0,0,1.92-.33A2.38,2.38,0,0,1,38,42.95c-.82-.7-1.34-.49-1.82.19a1.21,1.21,0,0,1-1.87.32,7.91,7.91,0,0,0-1.08-.53c-.43-.19-1.23.28-1.25-.62,0-.55-.34-1.33.25-1.63a2.05,2.05,0,0,1,2.05.32c.07.05.12.16.2.18.32.1.42,1,.9.38.32-.39,0-.85-.35-1.18a2.42,2.42,0,0,0-1.65-.52c-1.58-.07-1.61-.09-1.46-1.85.11-1.3.86-1.95,2-1.75.22,0,.43.13.65.18,1.88.41,2.43.08,3.16-1.9-.7-.28-.87.3-1.08.7a1.19,1.19,0,0,1-1.61.59,3.11,3.11,0,0,0-2.6-.2c-.44.22-.52-.13-.52-.49,0-.54,0-1.07,0-1.86,1.54,1.35,2.81,1,4-.31a1.31,1.31,0,0,1,.71-.35,16,16,0,0,1,7.83.5A.54.54,0,0,1,44.85,33.83Z"/></g></g></svg>