<svg xmlns="http://www.w3.org/2000/svg" viewBox="0 0 53.3 56.93"><defs><style>.cls-1{fill:#878787;}</style></defs><title>Asset 2</title><g id="Layer_2" data-name="Layer 2"><g id="Layer_1-2" data-name="Layer 1"><path class="cls-1" d="M53.3,20.86c-.42,1.67-.75,3.38-1.27,5a24.81,24.81,0,0,1-6.27,10.21c-1-1.09-2-2.17-3.1-3.18-.5-.48-.49-.77,0-1.27a19.12,19.12,0,0,0,5-10.39A19.68,19.68,0,0,0,42.8,4.6c-.59-.66-.67-1,0-1.63a21.58,21.58,0,0,0,2.87-3h.25a12.16,12.16,0,0,1,3.45,3.91,21.08,21.08,0,0,1,3.8,11.34.33.33,0,0,0,.11.21Z"/><path class="cls-1" d="M7.61,0a28.56,28.56,0,0,0,3,3.15c.49.49.46.76,0,1.27-7.15,8.12-7.16,19.1,0,27.22.44.5.51.78,0,1.27-1.06,1-2.06,2.09-3.12,3.19A25.5,25.5,0,0,1,.24,21.38c0-.26.09-.59-.24-.76v-1a8.39,8.39,0,0,0,0-3.19V15.21a22.83,22.83,0,0,1,3.72-11C4.74,2.66,5.69,1,7.37,0Z"/><path class="cls-1" d="M10,18.72A15.9,15.9,0,0,1,13.79,7.84c.51-.61.94-.85,1.46-.06a1.29,1.29,0,0,0,.17.17c.87.87,2.09,1.59,2.5,2.64s-1.08,1.83-1.54,2.87a10.07,10.07,0,0,0,1.29,11c.48.61.54.92-.06,1.45a29.55,29.55,0,0,0-2.42,2.43c-.5.55-.77.6-1.3,0A15,15,0,0,1,10,18.72Z"/><path class="cls-1" d="M43.29,18.09a15.3,15.3,0,0,1-3.94,10.28c-.49.56-.74.52-1.2,0-.86-.93-1.76-1.82-2.68-2.69-.37-.35-.41-.59,0-1a10.12,10.12,0,0,0,0-13.4c-.3-.33-.37-.55,0-.9,1-1,2-1.94,2.94-3,.56-.6.77,0,1,.27A15.19,15.19,0,0,1,43.29,18.09Z"/><path class="cls-1" d="M41.12,56.35q-5.26-15-10.53-30a3.88,3.88,0,0,1,.73-4.28,6.26,6.26,0,1,0-9.39.13,3.72,3.72,0,0,1,.79,4.15c-1.77,4.9-3.49,9.83-5.2,14.75Q14.76,49,12,56.93h5.89a3.59,3.59,0,0,0,.77-1.08,8.44,8.44,0,0,1,7.88-4.45,8.47,8.47,0,0,1,8,4.45,3.61,3.61,0,0,0,.77,1.08h5.89C41.21,56.74,41.18,56.53,41.12,56.35ZM25.6,34.83c.31-.88.64-1.75,1.06-2.89.68,1.95,1.25,3.64,1.87,5.31.17.47.13.61-.41.67C24.52,38.32,24.4,38.18,25.6,34.83ZM31,46.26q-4.35,0-8.69,0c-.67,0-.61-.3-.44-.75.34-.91.66-1.83,1-2.75a3.11,3.11,0,0,1,1.89-.17c1.9.07,3.8-.26,5.69.17.33.92.65,1.84,1,2.75C31.6,46,31.67,46.26,31,46.26Z"/></g></g></svg>